<svg xmlns="http://www.w3.org/2000/svg" xmlns:xlink="http://www.w3.org/1999/xlink" width="100" height="100" viewBox="0 0 1000 1000"><style>.st0{fill:#009789;}.st1{fill:#024E41;}.st2{fill:#FFFFFF;}</style><g transform="matrix(0.29266863,0,0,0.29266863,8.3334108,-12.320112)"><g transform="matrix(1.5849745,0,0,1.5849745,-33.159906,-17)"><path class="st0" d="M1344.2,262.1v405l455.2,1169c0,0,139,285.5-258.5,355.1H634.2c0,0-370.4-38.7-281.6-332L830.9,667.2v-405H1344.2z"/><path class="st1" d="M1353.8,215h-546c-44.2,0-80.2-39.3-80.2-87.9c0-48.6,36-88,80.2-88h546c44.4,0,80.3,39.3,80.3,88C1434.1,175.7,1398.2,215,1353.8,215z"/><path class="st2" d="M1209.7,923.5c58.6,0,106.4,57.2,106.4,128.1c0,70.6-47.8,128-106.4,128c-58.7,0-106.4-57.4-106.4-128C1103.4,980.7,1151,923.5,1209.7,923.5z"/><ellipse class="st2" cx="883.2" cy="1147.8" rx="89.7" ry="108.1"/><path class="st1" d="M1384.6,640.3V447.7c0,0,244.3-53.9,366.4,230.3C1751,677.9,1560.7,816.6,1384.6,640.3z"/><path class="st1" d="M786.3,640.3V447.7c0,0-244.3-53.9-366.3,230.3C420,677.9,610,816.6,786.3,640.3z"/><path class="st2" d="M1531.5,1437.5c-397.3-123.2-731.2-57.1-894.5-7.1l-164.6,396.2c-74.1,236.5,235.3,267.6,235.3,267.6H1465c331.9-56.1,215.9-286.2,215.9-286.2L1531.5,1437.5z"/><path class="st1" d="M959,1584.7c0,42.7-57.4,77.5-128.1,77.5s-128-34.8-128-77.5c0-42.9,57.2-77.5,128-77.5C901.6,1507.2,959,1541.8,959,1584.7z"/><path class="st1" d="M1414.7,1584.7c0,42.7-57.4,77.5-128,77.5c-70.9,0-128.1-34.8-128.1-77.5c0-42.9,57.2-77.5,128.1-77.5C1357.3,1507.2,1414.7,1541.8,1414.7,1584.7z"/></g></g></svg>
